# xmcd CD database file
#
# Track frame offsets:
#	150
#	15822
#	31851
#	37571
#	52363
#	65612
#	82000
#	99778
#	118343
#	126998
#	143875
#	160184
#	172899
#	191042
#	209784
#	238461
#
# Disc length: 4440 seconds
#
# Revision: 0
# Processed by: cddbd v1.5.1PL0 Copyright (c) Steve Scherf et al.
# Submitted via: CDex 1.51
#
DISCID=e0115610
DTITLE=John Williamson - Mates On The Road (Disk 1)
DYEAR=2003
DGENRE=Country
TTITLE0=Mallee Boy
TTITLE1=Dear Little Quambatook
TTITLE2=Chook Routine
TTITLE3=It Goes Without Saying
TTITLE4=Cracker Night
TTITLE5=Forty Years Ago
TTITLE6=Salisbury Street
TTITLE7=Hawkesbury River Lovin'
TTITLE8=The Flight Of The Blowfly (featuring Pixie Jenkins)
TTITLE9=Boomerang Cafe
TTITLE10=Buried In Her Bedclothes
TTITLE11=You And My Guitar
TTITLE12=Galleries Of Pink Galahs
TTITLE13=Cootamundra Wattle
TTITLE14=Old Man Emu
TTITLE15=PCControlFile
EXTD=YEAR: 2003
EXTT0=
EXTT1=
EXTT2=
EXTT3=
EXTT4=
EXTT5=
EXTT6=
EXTT7=
EXTT8=
EXTT9=
EXTT10=
EXTT11=
EXTT12=
EXTT13=
EXTT14=
EXTT15=
PLAYORDER=
